Source: Watchmen.2009.Ultimate.Cut.720p.BluRay.x264-SiNNERS

Subs: Arabic, Brazilian, Bulgarian, Croatian, Danish, Dutch, English, Farsi-Persian, Finnish, French, Hungarian, Indonesian, Polish, Portuguese, Romanian, Slovenian and Spanish.

Sample and Screens included.

General
Complete name                    : Watchmen-720p MP4 AAC Ultimate Cut BRRip 2009-CC.mp4
Format                           : MPEG-4
Format profile                   : Base Media
Codec ID                         : isom
File size                        : 3.21 GiB
Duration                         : 3h 35mn
Overall bit rate                 : 2 133 Kbps
Encoded date                     : UTC 2012-03-15 10:11:00

Video
ID                               : 1
Format                           : AVC
Format/Info                      : Advanced Video Codec
Format profile                   : High@L3.1
Format settings, CABAC           : Yes
Format settings, ReFrames        : 5 frames
Codec ID                         : avc1
Codec ID/Info                    : Advanced Video Coding
Duration                         : 3h 35mn
Bit rate mode                    : Variable
Bit rate                         : 1 744 Kbps
Nominal bit rate                 : 1 786 Kbps
Maximum bit rate                 : 23.7 Mbps
Width                            : 1 280 pixels
Height                           : 528 pixels
Display aspect ratio             : 2.40:1
Frame rate mode                  : Variable
Frame rate                       : 23.976 fps
Minimum frame rate               : 19.048 fps
Maximum frame rate               : 24.390 fps
Resolution                       : 24 bits
Colorimetry                      : 4:2:0
Scan type                        : Progressive
Bits/(Pixel*Frame)               : 0.108
Stream size                      : 2.62 GiB (82%)
Writing library                  : x264 core 112

Audio
ID                               : 2
Format                           : AAC
Format/Info                      : Advanced Audio Codec
Format version                   : Version 4
Format profile                   : LC
Format settings, SBR             : No
Codec ID                         : 40
Duration                         : 3h 35mn
Bit rate mode                    : Variable
Bit rate                         : 384 Kbps
Maximum bit rate                 : 714 Kbps
Channel(s)                       : 6 channels
Channel positions                : Front: L C R, Rear: L R, LFE
Sampling rate                    : 48.0 KHz
Resolution                       : 16 bits
Stream size                      : 591 MiB (18%)
